<?xml version="1.0" encoding="UTF-8"?>
<!DOCTYPE svg PUBLIC "-//W3C//DTD SVG 1.1//EN" "http://www.w3.org/Graphics/SVG/1.1/DTD/svg11.dtd">
<svg version="1.2" width="101.02mm" height="94.02mm" viewBox="1500 8300 10102 9402" preserveAspectRatio="xMidYMid" fill-rule="evenodd" stroke-width="28.222" stroke-linejoin="round" xmlns="http://www.w3.org/2000/svg" xmlns:ooo="http://xml.openoffice.org/svg/export" xmlns:xlink="http://www.w3.org/1999/xlink" xmlns:presentation="http://sun.com/xmlns/staroffice/presentation" xmlns:smil="http://www.w3.org/2001/SMIL20/" xmlns:anim="urn:oasis:names:tc:opendocument:xmlns:animation:1.0" xml:space="preserve">
 <defs class="ClipPathGroup">
  <clipPath id="presentation_clip_path" clipPathUnits="userSpaceOnUse">
   <rect x="1500" y="8300" width="10102" height="9402"/>
  </clipPath>
  <clipPath id="presentation_clip_path_shrink" clipPathUnits="userSpaceOnUse">
   <rect x="1510" y="8309" width="10082" height="9384"/>
  </clipPath>
 </defs>
 <defs class="TextShapeIndex">
  <g ooo:slide="id1" ooo:id-list="id3 id4 id5 id6 id7 id8 id9 id10 id11 id12 id13 id14 id15 id16 id17 id18 id19 id20 id21 id22 id23 id24 id25 id26 id27 id28 id29 id30 id31 id32 id33 id34 id35 id36 id37 id38 id39 id40 id41 id42"/>
 </defs>
 <defs class="EmbeddedBulletChars">
  <g id="bullet-char-template-57356" transform="scale(0.00048828125,-0.00048828125)">
   <path d="M 580,1141 L 1163,571 580,0 -4,571 580,1141 Z"/>
  </g>
  <g id="bullet-char-template-57354" transform="scale(0.00048828125,-0.00048828125)">
   <path d="M 8,1128 L 1137,1128 1137,0 8,0 8,1128 Z"/>
  </g>
  <g id="bullet-char-template-10146" transform="scale(0.00048828125,-0.00048828125)">
   <path d="M 174,0 L 602,739 174,1481 1456,739 174,0 Z M 1358,739 L 309,1346 659,739 1358,739 Z"/>
  </g>
  <g id="bullet-char-template-10132" transform="scale(0.00048828125,-0.00048828125)">
   <path d="M 2015,739 L 1276,0 717,0 1260,543 174,543 174,936 1260,936 717,1481 1274,1481 2015,739 Z"/>
  </g>
  <g id="bullet-char-template-10007" transform="scale(0.00048828125,-0.00048828125)">
   <path d="M 0,-2 C -7,14 -16,27 -25,37 L 356,567 C 262,823 215,952 215,954 215,979 228,992 255,992 264,992 276,990 289,987 310,991 331,999 354,1012 L 381,999 492,748 772,1049 836,1024 860,1049 C 881,1039 901,1025 922,1006 886,937 835,863 770,784 769,783 710,716 594,584 L 774,223 C 774,196 753,168 711,139 L 727,119 C 717,90 699,76 672,76 641,76 570,178 457,381 L 164,-76 C 142,-110 111,-127 72,-127 30,-127 9,-110 8,-76 1,-67 -2,-52 -2,-32 -2,-23 -1,-13 0,-2 Z"/>
  </g>
  <g id="bullet-char-template-10004" transform="scale(0.00048828125,-0.00048828125)">
   <path d="M 285,-33 C 182,-33 111,30 74,156 52,228 41,333 41,471 41,549 55,616 82,672 116,743 169,778 240,778 293,778 328,747 346,684 L 369,508 C 377,444 397,411 428,410 L 1163,1116 C 1174,1127 1196,1133 1229,1133 1271,1133 1292,1118 1292,1087 L 1292,965 C 1292,929 1282,901 1262,881 L 442,47 C 390,-6 338,-33 285,-33 Z"/>
  </g>
  <g id="bullet-char-template-9679" transform="scale(0.00048828125,-0.00048828125)">
   <path d="M 813,0 C 632,0 489,54 383,161 276,268 223,411 223,592 223,773 276,916 383,1023 489,1130 632,1184 813,1184 992,1184 1136,1130 1245,1023 1353,916 1407,772 1407,592 1407,412 1353,268 1245,161 1136,54 992,0 813,0 Z"/>
  </g>
  <g id="bullet-char-template-8226" transform="scale(0.00048828125,-0.00048828125)">
   <path d="M 346,457 C 273,457 209,483 155,535 101,586 74,649 74,723 74,796 101,859 155,911 209,963 273,989 346,989 419,989 480,963 531,910 582,859 608,796 608,723 608,648 583,586 532,535 482,483 420,457 346,457 Z"/>
  </g>
  <g id="bullet-char-template-8211" transform="scale(0.00048828125,-0.00048828125)">
   <path d="M -4,459 L 1135,459 1135,606 -4,606 -4,459 Z"/>
  </g>
  <g id="bullet-char-template-61548" transform="scale(0.00048828125,-0.00048828125)">
   <path d="M 173,740 C 173,903 231,1043 346,1159 462,1274 601,1332 765,1332 928,1332 1067,1274 1183,1159 1299,1043 1357,903 1357,740 1357,577 1299,437 1183,322 1067,206 928,148 765,148 601,148 462,206 346,322 231,437 173,577 173,740 Z"/>
  </g>
 </defs>
 <defs class="TextEmbeddedBitmaps"/>
 <g class="SlideGroup">
  <g>
   <g id="container-id1">
    <g id="id1" class="Slide" clip-path="url(#presentation_clip_path)">
     <g class="Page">
      <g class="com.sun.star.drawing.CustomShape">
       <g id="id3">
        <rect class="BoundingBox" stroke="none" fill="none" x="3600" y="10485" width="1804" height="1804"/>
        <path fill="none" stroke="rgb(51,51,51)" d="M 4500,10486 C 5010,10486 5400,10875 5400,11385 5400,11895 5010,12285 4500,12285 3990,12285 3601,11895 3601,11385 3601,10875 3990,10486 4500,10486 Z"/>
        <path fill="none" stroke="rgb(51,51,51)" d="M 3601,10486 L 3601,10486 Z"/>
        <path fill="none" stroke="rgb(51,51,51)" d="M 5402,12287 L 5402,12287 Z"/>
       </g>
      </g>
      <g class="com.sun.star.drawing.CustomShape">
       <g id="id4">
        <rect class="BoundingBox" stroke="none" fill="none" x="7401" y="10486" width="1804" height="1804"/>
        <path fill="none" stroke="rgb(51,51,51)" d="M 8301,10487 C 8811,10487 9201,10876 9201,11386 9201,11896 8811,12286 8301,12286 7791,12286 7402,11896 7402,11386 7402,10876 7791,10487 8301,10487 Z"/>
        <path fill="none" stroke="rgb(51,51,51)" d="M 7402,10487 L 7402,10487 Z"/>
        <path fill="none" stroke="rgb(51,51,51)" d="M 9203,12288 L 9203,12288 Z"/>
       </g>
      </g>
      <g class="com.sun.star.drawing.CustomShape">
       <g id="id5">
        <rect class="BoundingBox" stroke="none" fill="none" x="3600" y="13685" width="1804" height="1804"/>
        <path fill="none" stroke="rgb(51,51,51)" d="M 4500,13686 C 5010,13686 5400,14075 5400,14585 5400,15095 5010,15485 4500,15485 3990,15485 3601,15095 3601,14585 3601,14075 3990,13686 4500,13686 Z"/>
        <path fill="none" stroke="rgb(51,51,51)" d="M 3601,13686 L 3601,13686 Z"/>
        <path fill="none" stroke="rgb(51,51,51)" d="M 5402,15487 L 5402,15487 Z"/>
       </g>
      </g>
      <g class="com.sun.star.drawing.CustomShape">
       <g id="id6">
        <rect class="BoundingBox" stroke="none" fill="none" x="7401" y="13686" width="1804" height="1804"/>
        <path fill="none" stroke="rgb(51,51,51)" d="M 8301,13687 C 8811,13687 9201,14076 9201,14586 9201,15096 8811,15486 8301,15486 7791,15486 7402,15096 7402,14586 7402,14076 7791,13687 8301,13687 Z"/>
        <path fill="none" stroke="rgb(51,51,51)" d="M 7402,13687 L 7402,13687 Z"/>
        <path fill="none" stroke="rgb(51,51,51)" d="M 9203,15488 L 9203,15488 Z"/>
       </g>
      </g>
      <g class="com.sun.star.drawing.ConnectorShape">
       <g id="id7">
        <rect class="BoundingBox" stroke="none" fill="none" x="3056" y="9913" width="1460" height="1475"/>
        <path fill="none" stroke="rgb(0,0,0)" d="M 3601,11386 C 2850,11386 2974,10685 3387,10272 3800,9859 4171,9814 4387,10080"/>
        <path fill="rgb(0,0,0)" stroke="none" d="M 4501,10486 L 4515,10012 4227,10098 4501,10486 Z"/>
       </g>
      </g>
      <g class="com.sun.star.drawing.ConnectorShape">
       <g id="id8">
        <rect class="BoundingBox" stroke="none" fill="none" x="3028" y="14572" width="1475" height="1461"/>
        <path fill="none" stroke="rgb(0,0,0)" d="M 4501,15486 C 4501,16239 3800,16114 3387,15701 2974,15288 2929,14916 3195,14700"/>
        <path fill="rgb(0,0,0)" stroke="none" d="M 3601,14586 L 3127,14572 3214,14860 3601,14586 Z"/>
       </g>
      </g>
      <g class="com.sun.star.drawing.ConnectorShape">
       <g id="id9">
        <rect class="BoundingBox" stroke="none" fill="none" x="8301" y="14572" width="1477" height="1462"/>
        <path fill="none" stroke="rgb(0,0,0)" d="M 8302,15487 C 8302,16240 9004,16115 9417,15702 9830,15289 9876,14916 9608,14700"/>
        <path fill="rgb(0,0,0)" stroke="none" d="M 9202,14587 L 9590,14860 9676,14573 9202,14587 Z"/>
       </g>
      </g>
      <g class="com.sun.star.drawing.ConnectorShape">
       <g id="id10">
        <rect class="BoundingBox" stroke="none" fill="none" x="8301" y="9942" width="1477" height="1461"/>
        <path fill="none" stroke="rgb(0,0,0)" d="M 8302,10487 C 8302,9736 9004,9860 9417,10273 9830,10686 9876,11058 9608,11274"/>
        <path fill="rgb(0,0,0)" stroke="none" d="M 9202,11387 L 9676,11401 9590,11114 9202,11387 Z"/>
       </g>
      </g>
      <g class="com.sun.star.drawing.ConnectorShape">
       <g id="id11">
        <rect class="BoundingBox" stroke="none" fill="none" x="5137" y="10599" width="2529" height="302"/>
        <path fill="none" stroke="rgb(0,0,0)" d="M 5138,10749 C 7034,10749 5972,10750 7227,10750"/>
        <path fill="rgb(0,0,0)" stroke="none" d="M 7665,10750 L 7215,10600 7215,10900 7665,10750 Z"/>
       </g>
      </g>
      <g class="com.sun.star.drawing.ConnectorShape">
       <g id="id12">
        <rect class="BoundingBox" stroke="none" fill="none" x="5401" y="11236" width="2003" height="302"/>
        <path fill="none" stroke="rgb(0,0,0)" d="M 7402,11387 C 5902,11387 6699,11386 5839,11386"/>
        <path fill="rgb(0,0,0)" stroke="none" d="M 5401,11386 L 5851,11536 5851,11236 5401,11386 Z"/>
       </g>
      </g>
      <g class="com.sun.star.drawing.ConnectorShape">
       <g id="id13">
        <rect class="BoundingBox" stroke="none" fill="none" x="5400" y="14436" width="2003" height="302"/>
        <path fill="none" stroke="rgb(0,0,0)" d="M 5401,14586 C 6902,14586 6105,14587 6964,14587"/>
        <path fill="rgb(0,0,0)" stroke="none" d="M 7402,14587 L 6952,14437 6952,14737 7402,14587 Z"/>
       </g>
      </g>
      <g class="com.sun.star.drawing.ConnectorShape">
       <g id="id14">
        <rect class="BoundingBox" stroke="none" fill="none" x="5138" y="15073" width="2529" height="302"/>
        <path fill="none" stroke="rgb(0,0,0)" d="M 7665,15224 C 5771,15224 6833,15223 5576,15223"/>
        <path fill="rgb(0,0,0)" stroke="none" d="M 5138,15223 L 5588,15373 5588,15073 5138,15223 Z"/>
       </g>
      </g>
      <g class="com.sun.star.drawing.ConnectorShape">
       <g id="id15">
        <rect class="BoundingBox" stroke="none" fill="none" x="8789" y="12023" width="301" height="1928"/>
        <path fill="none" stroke="rgb(0,0,0)" d="M 8939,12024 L 8939,13520"/>
        <path fill="rgb(0,0,0)" stroke="none" d="M 8939,13950 L 9089,13500 8789,13500 8939,13950 Z"/>
       </g>
      </g>
      <g class="com.sun.star.drawing.ConnectorShape">
       <g id="id16">
        <rect class="BoundingBox" stroke="none" fill="none" x="8152" y="12287" width="301" height="1402"/>
        <path fill="none" stroke="rgb(0,0,0)" d="M 8302,13687 L 8302,12717"/>
        <path fill="rgb(0,0,0)" stroke="none" d="M 8302,12287 L 8152,12737 8452,12737 8302,12287 Z"/>
       </g>
      </g>
      <g class="com.sun.star.drawing.ConnectorShape">
       <g id="id17">
        <rect class="BoundingBox" stroke="none" fill="none" x="4351" y="12285" width="301" height="1402"/>
        <path fill="none" stroke="rgb(0,0,0)" d="M 4501,12286 L 4501,13256"/>
        <path fill="rgb(0,0,0)" stroke="none" d="M 4501,13686 L 4651,13236 4351,13236 4501,13686 Z"/>
       </g>
      </g>
      <g class="com.sun.star.drawing.ConnectorShape">
       <g id="id18">
        <rect class="BoundingBox" stroke="none" fill="none" x="3714" y="12023" width="301" height="1928"/>
        <path fill="none" stroke="rgb(0,0,0)" d="M 3864,13949 L 3864,12453"/>
        <path fill="rgb(0,0,0)" stroke="none" d="M 3864,12023 L 3714,12473 4014,12473 3864,12023 Z"/>
       </g>
      </g>
      <g class="com.sun.star.drawing.CustomShape">
       <g id="id19">
        <rect class="BoundingBox" stroke="none" fill="none" x="8299" y="8299" width="1104" height="1104"/>
        <path fill="none" stroke="rgb(51,51,51)" d="M 8850,8300 C 9162,8300 9400,8538 9400,8850 9400,9162 9162,9400 8850,9400 8538,9400 8300,9162 8300,8850 8300,8538 8538,8300 8850,8300 Z"/>
        <path fill="none" stroke="rgb(51,51,51)" d="M 8300,8300 L 8300,8300 Z"/>
        <path fill="none" stroke="rgb(51,51,51)" d="M 9401,9401 L 9401,9401 Z"/>
       </g>
      </g>
      <g class="com.sun.star.drawing.CustomShape">
       <g id="id20">
        <rect class="BoundingBox" stroke="none" fill="none" x="9899" y="8799" width="1104" height="1104"/>
        <path fill="none" stroke="rgb(51,51,51)" d="M 10450,8800 C 10762,8800 11000,9038 11000,9350 11000,9662 10762,9900 10450,9900 10138,9900 9900,9662 9900,9350 9900,9038 10138,8800 10450,8800 Z"/>
        <path fill="none" stroke="rgb(51,51,51)" d="M 9900,8800 L 9900,8800 Z"/>
        <path fill="none" stroke="rgb(51,51,51)" d="M 11001,9901 L 11001,9901 Z"/>
       </g>
      </g>
      <g class="com.sun.star.drawing.CustomShape">
       <g id="id21">
        <rect class="BoundingBox" stroke="none" fill="none" x="10499" y="10299" width="1104" height="1104"/>
        <path fill="none" stroke="rgb(51,51,51)" d="M 11050,10300 C 11362,10300 11600,10538 11600,10850 11600,11162 11362,11400 11050,11400 10738,11400 10500,11162 10500,10850 10500,10538 10738,10300 11050,10300 Z"/>
        <path fill="none" stroke="rgb(51,51,51)" d="M 10500,10300 L 10500,10300 Z"/>
        <path fill="none" stroke="rgb(51,51,51)" d="M 11601,11401 L 11601,11401 Z"/>
       </g>
      </g>
      <g class="com.sun.star.drawing.ConnectorShape">
       <g id="id22">
        <rect class="BoundingBox" stroke="none" fill="none" x="8718" y="9400" width="303" height="1352"/>
        <path fill="none" stroke="rgb(0,0,0)" d="M 8939,10750 L 8868,9679"/>
        <path fill="rgb(0,0,0)" stroke="none" d="M 8850,9400 L 9018,9668 9019,9689 9008,9690 8864,9460 8880,9699 8860,9700 8844,9461 8731,9708 8720,9709 8719,9688 8850,9400 Z"/>
       </g>
      </g>
      <g class="com.sun.star.drawing.ConnectorShape">
       <g id="id23">
        <rect class="BoundingBox" stroke="none" fill="none" x="8938" y="9739" width="1124" height="1013"/>
        <path fill="none" stroke="rgb(0,0,0)" d="M 8939,10750 L 9853,9926"/>
        <path fill="rgb(0,0,0)" stroke="none" d="M 10061,9739 L 9954,10037 9939,10051 9931,10043 10023,9787 9845,9947 9831,9932 10009,9772 9745,9837 9738,9828 9753,9814 10061,9739 Z"/>
       </g>
      </g>
      <g class="com.sun.star.drawing.ConnectorShape">
       <g id="id24">
        <rect class="BoundingBox" stroke="none" fill="none" x="8938" y="10681" width="1563" height="302"/>
        <path fill="none" stroke="rgb(0,0,0)" d="M 8939,10750 L 10221,10832"/>
        <path fill="rgb(0,0,0)" stroke="none" d="M 10500,10850 L 10212,10982 10191,10981 10192,10969 10439,10856 10200,10841 10201,10821 10440,10836 10209,10693 10210,10681 10231,10682 10500,10850 Z"/>
       </g>
      </g>
      <g class="com.sun.star.drawing.CustomShape">
       <g id="id25">
        <rect class="BoundingBox" stroke="none" fill="none" x="10399" y="14599" width="1104" height="1104"/>
        <path fill="none" stroke="rgb(51,51,51)" d="M 10950,14600 C 11262,14600 11500,14838 11500,15150 11500,15462 11262,15700 10950,15700 10638,15700 10400,15462 10400,15150 10400,14838 10638,14600 10950,14600 Z"/>
        <path fill="none" stroke="rgb(51,51,51)" d="M 10400,14600 L 10400,14600 Z"/>
        <path fill="none" stroke="rgb(51,51,51)" d="M 11501,15701 L 11501,15701 Z"/>
       </g>
      </g>
      <g class="com.sun.star.drawing.CustomShape">
       <g id="id26">
        <rect class="BoundingBox" stroke="none" fill="none" x="9799" y="15999" width="1104" height="1104"/>
        <path fill="none" stroke="rgb(51,51,51)" d="M 10350,16000 C 10662,16000 10900,16238 10900,16550 10900,16862 10662,17100 10350,17100 10038,17100 9800,16862 9800,16550 9800,16238 10038,16000 10350,16000 Z"/>
        <path fill="none" stroke="rgb(51,51,51)" d="M 9800,16000 L 9800,16000 Z"/>
        <path fill="none" stroke="rgb(51,51,51)" d="M 10901,17101 L 10901,17101 Z"/>
       </g>
      </g>
      <g class="com.sun.star.drawing.CustomShape">
       <g id="id27">
        <rect class="BoundingBox" stroke="none" fill="none" x="8099" y="16499" width="1104" height="1104"/>
        <path fill="none" stroke="rgb(51,51,51)" d="M 8650,16500 C 8962,16500 9200,16738 9200,17050 9200,17362 8962,17600 8650,17600 8338,17600 8100,17362 8100,17050 8100,16738 8338,16500 8650,16500 Z"/>
        <path fill="none" stroke="rgb(51,51,51)" d="M 8100,16500 L 8100,16500 Z"/>
        <path fill="none" stroke="rgb(51,51,51)" d="M 9201,17601 L 9201,17601 Z"/>
       </g>
      </g>
      <g class="com.sun.star.drawing.ConnectorShape">
       <g id="id28">
        <rect class="BoundingBox" stroke="none" fill="none" x="8938" y="15014" width="1463" height="302"/>
        <path fill="none" stroke="rgb(0,0,0)" d="M 8939,15224 L 10120,15164"/>
        <path fill="rgb(0,0,0)" stroke="none" d="M 10400,15150 L 10129,15314 10108,15315 10107,15304 10340,15163 10101,15175 10100,15155 10339,15143 10093,15027 10093,15015 10114,15014 10400,15150 Z"/>
       </g>
      </g>
      <g class="com.sun.star.drawing.ConnectorShape">
       <g id="id29">
        <rect class="BoundingBox" stroke="none" fill="none" x="8938" y="15223" width="1024" height="939"/>
        <path fill="none" stroke="rgb(0,0,0)" d="M 8939,15224 L 9755,15972"/>
        <path fill="rgb(0,0,0)" stroke="none" d="M 9961,16161 L 9654,16083 9639,16069 9646,16060 9909,16127 9733,15966 9747,15951 9923,16113 9834,15856 9841,15848 9857,15862 9961,16161 Z"/>
       </g>
      </g>
      <g class="com.sun.star.drawing.ConnectorShape">
       <g id="id30">
        <rect class="BoundingBox" stroke="none" fill="none" x="8565" y="15223" width="376" height="1278"/>
        <path fill="none" stroke="rgb(0,0,0)" d="M 8939,15224 L 8712,16227"/>
        <path fill="rgb(0,0,0)" stroke="none" d="M 8650,16500 L 8565,16195 8570,16174 8581,16177 8654,16438 8707,16205 8726,16210 8673,16443 8851,16238 8863,16241 8858,16261 8650,16500 Z"/>
       </g>
      </g>
      <g class="com.sun.star.drawing.CustomShape">
       <g id="id31">
        <rect class="BoundingBox" stroke="none" fill="none" x="1499" y="14999" width="1104" height="1104"/>
        <path fill="none" stroke="rgb(51,51,51)" d="M 2050,15000 C 2362,15000 2600,15238 2600,15550 2600,15862 2362,16100 2050,16100 1738,16100 1500,15862 1500,15550 1500,15238 1738,15000 2050,15000 Z"/>
        <path fill="none" stroke="rgb(51,51,51)" d="M 1500,15000 L 1500,15000 Z"/>
        <path fill="none" stroke="rgb(51,51,51)" d="M 2601,16101 L 2601,16101 Z"/>
       </g>
      </g>
      <g class="com.sun.star.drawing.CustomShape">
       <g id="id32">
        <rect class="BoundingBox" stroke="none" fill="none" x="2199" y="16299" width="1104" height="1104"/>
        <path fill="none" stroke="rgb(51,51,51)" d="M 2750,16300 C 3062,16300 3300,16538 3300,16850 3300,17162 3062,17400 2750,17400 2438,17400 2200,17162 2200,16850 2200,16538 2438,16300 2750,16300 Z"/>
        <path fill="none" stroke="rgb(51,51,51)" d="M 2200,16300 L 2200,16300 Z"/>
        <path fill="none" stroke="rgb(51,51,51)" d="M 3301,17401 L 3301,17401 Z"/>
       </g>
      </g>
      <g class="com.sun.star.drawing.CustomShape">
       <g id="id33">
        <rect class="BoundingBox" stroke="none" fill="none" x="3699" y="16599" width="1104" height="1104"/>
        <path fill="none" stroke="rgb(51,51,51)" d="M 4250,16600 C 4562,16600 4800,16838 4800,17150 4800,17462 4562,17700 4250,17700 3938,17700 3700,17462 3700,17150 3700,16838 3938,16600 4250,16600 Z"/>
        <path fill="none" stroke="rgb(51,51,51)" d="M 3700,16600 L 3700,16600 Z"/>
        <path fill="none" stroke="rgb(51,51,51)" d="M 4801,17701 L 4801,17701 Z"/>
       </g>
      </g>
      <g class="com.sun.star.drawing.ConnectorShape">
       <g id="id34">
        <rect class="BoundingBox" stroke="none" fill="none" x="2600" y="15222" width="1266" height="405"/>
        <path fill="none" stroke="rgb(0,0,0)" d="M 3864,15223 L 2871,15480"/>
        <path fill="rgb(0,0,0)" stroke="none" d="M 2600,15550 L 2832,15335 2853,15330 2856,15341 2656,15525 2888,15465 2893,15485 2661,15544 2925,15609 2928,15620 2908,15625 2600,15550 Z"/>
       </g>
      </g>
      <g class="com.sun.star.drawing.ConnectorShape">
       <g id="id35">
        <rect class="BoundingBox" stroke="none" fill="none" x="3139" y="15222" width="727" height="1240"/>
        <path fill="none" stroke="rgb(0,0,0)" d="M 3864,15223 L 3280,16219"/>
        <path fill="rgb(0,0,0)" stroke="none" d="M 3139,16461 L 3151,16145 3161,16126 3171,16132 3161,16403 3282,16197 3299,16207 3178,16414 3410,16272 3420,16278 3409,16296 3139,16461 Z"/>
       </g>
      </g>
      <g class="com.sun.star.drawing.ConnectorShape">
       <g id="id36">
        <rect class="BoundingBox" stroke="none" fill="none" x="3863" y="15222" width="458" height="1379"/>
        <path fill="none" stroke="rgb(0,0,0)" d="M 3864,15223 L 4174,16330"/>
        <path fill="rgb(0,0,0)" stroke="none" d="M 4250,16600 L 4030,16372 4025,16352 4036,16349 4224,16544 4159,16314 4179,16308 4243,16539 4302,16274 4313,16271 4319,16291 4250,16600 Z"/>
       </g>
      </g>
      <g class="com.sun.star.drawing.CustomShape">
       <g id="id37">
        <rect class="BoundingBox" stroke="none" fill="none" x="1499" y="10499" width="1104" height="1104"/>
        <path fill="none" stroke="rgb(51,51,51)" d="M 2050,10500 C 2362,10500 2600,10738 2600,11050 2600,11362 2362,11600 2050,11600 1738,11600 1500,11362 1500,11050 1500,10738 1738,10500 2050,10500 Z"/>
        <path fill="none" stroke="rgb(51,51,51)" d="M 1500,10500 L 1500,10500 Z"/>
        <path fill="none" stroke="rgb(51,51,51)" d="M 2601,11601 L 2601,11601 Z"/>
       </g>
      </g>
      <g class="com.sun.star.drawing.CustomShape">
       <g id="id38">
        <rect class="BoundingBox" stroke="none" fill="none" x="1999" y="8999" width="1104" height="1104"/>
        <path fill="none" stroke="rgb(51,51,51)" d="M 2550,9000 C 2862,9000 3100,9238 3100,9550 3100,9862 2862,10100 2550,10100 2238,10100 2000,9862 2000,9550 2000,9238 2238,9000 2550,9000 Z"/>
        <path fill="none" stroke="rgb(51,51,51)" d="M 2000,9000 L 2000,9000 Z"/>
        <path fill="none" stroke="rgb(51,51,51)" d="M 3101,10101 L 3101,10101 Z"/>
       </g>
      </g>
      <g class="com.sun.star.drawing.CustomShape">
       <g id="id39">
        <rect class="BoundingBox" stroke="none" fill="none" x="3399" y="8499" width="1104" height="1104"/>
        <path fill="none" stroke="rgb(51,51,51)" d="M 3950,8500 C 4262,8500 4500,8738 4500,9050 4500,9362 4262,9600 3950,9600 3638,9600 3400,9362 3400,9050 3400,8738 3638,8500 3950,8500 Z"/>
        <path fill="none" stroke="rgb(51,51,51)" d="M 3400,8500 L 3400,8500 Z"/>
        <path fill="none" stroke="rgb(51,51,51)" d="M 4501,9601 L 4501,9601 Z"/>
       </g>
      </g>
      <g class="com.sun.star.drawing.ConnectorShape">
       <g id="id40">
        <rect class="BoundingBox" stroke="none" fill="none" x="2600" y="10748" width="1266" height="385"/>
        <path fill="none" stroke="rgb(0,0,0)" d="M 3864,10749 L 2872,10985"/>
        <path fill="rgb(0,0,0)" stroke="none" d="M 2600,11050 L 2837,10839 2857,10835 2860,10846 2657,11026 2890,10971 2894,10990 2661,11046 2924,11115 2927,11126 2906,11131 2600,11050 Z"/>
       </g>
      </g>
      <g class="com.sun.star.drawing.ConnectorShape">
       <g id="id41">
        <rect class="BoundingBox" stroke="none" fill="none" x="2939" y="9939" width="927" height="812"/>
        <path fill="none" stroke="rgb(0,0,0)" d="M 3864,10749 L 3150,10123"/>
        <path fill="rgb(0,0,0)" stroke="none" d="M 2939,9939 L 3248,10010 3264,10024 3256,10032 2991,9972 3171,10129 3158,10144 2978,9987 3073,10241 3066,10249 3050,10236 2939,9939 Z"/>
       </g>
      </g>
      <g class="com.sun.star.drawing.ConnectorShape">
       <g id="id42">
        <rect class="BoundingBox" stroke="none" fill="none" x="3778" y="9600" width="302" height="1151"/>
        <path fill="none" stroke="rgb(0,0,0)" d="M 3864,10749 L 3929,9879"/>
        <path fill="rgb(0,0,0)" stroke="none" d="M 3950,9600 L 4079,9889 4077,9910 4066,9910 3955,9661 3938,9900 3918,9898 3935,9660 3789,9889 3778,9888 3780,9867 3950,9600 Z"/>
       </g>
      </g>
     </g>
    </g>
   </g>
  </g>
 </g>
</svg>