<?xml version="1.0" encoding="UTF-8"?>
<!DOCTYPE svg PUBLIC "-//W3C//DTD SVG 1.1//EN" "http://www.w3.org/Graphics/SVG/1.1/DTD/svg11.dtd">
<svg version="1.2" width="87.7mm" height="81.01mm" viewBox="1465 10100 8770 8101" preserveAspectRatio="xMidYMid" fill-rule="evenodd" stroke-width="28.222" stroke-linejoin="round" xmlns="http://www.w3.org/2000/svg" xmlns:ooo="http://xml.openoffice.org/svg/export" xmlns:xlink="http://www.w3.org/1999/xlink" xmlns:presentation="http://sun.com/xmlns/staroffice/presentation" xmlns:smil="http://www.w3.org/2001/SMIL20/" xmlns:anim="urn:oasis:names:tc:opendocument:xmlns:animation:1.0" xml:space="preserve">
 <defs class="ClipPathGroup">
  <clipPath id="presentation_clip_path" clipPathUnits="userSpaceOnUse">
   <rect x="1465" y="10100" width="8770" height="8101"/>
  </clipPath>
  <clipPath id="presentation_clip_path_shrink" clipPathUnits="userSpaceOnUse">
   <rect x="1473" y="10108" width="8753" height="8085"/>
  </clipPath>
 </defs>
 <defs class="TextShapeIndex">
  <g ooo:slide="id1" ooo:id-list="id3 id4 id5 id6 id7 id8 id9 id10 id11 id12 id13 id14 id15"/>
 </defs>
 <defs class="EmbeddedBulletChars">
  <g id="bullet-char-template-57356" transform="scale(0.00048828125,-0.00048828125)">
   <path d="M 580,1141 L 1163,571 580,0 -4,571 580,1141 Z"/>
  </g>
  <g id="bullet-char-template-57354" transform="scale(0.00048828125,-0.00048828125)">
   <path d="M 8,1128 L 1137,1128 1137,0 8,0 8,1128 Z"/>
  </g>
  <g id="bullet-char-template-10146" transform="scale(0.00048828125,-0.00048828125)">
   <path d="M 174,0 L 602,739 174,1481 1456,739 174,0 Z M 1358,739 L 309,1346 659,739 1358,739 Z"/>
  </g>
  <g id="bullet-char-template-10132" transform="scale(0.00048828125,-0.00048828125)">
   <path d="M 2015,739 L 1276,0 717,0 1260,543 174,543 174,936 1260,936 717,1481 1274,1481 2015,739 Z"/>
  </g>
  <g id="bullet-char-template-10007" transform="scale(0.00048828125,-0.00048828125)">
   <path d="M 0,-2 C -7,14 -16,27 -25,37 L 356,567 C 262,823 215,952 215,954 215,979 228,992 255,992 264,992 276,990 289,987 310,991 331,999 354,1012 L 381,999 492,748 772,1049 836,1024 860,1049 C 881,1039 901,1025 922,1006 886,937 835,863 770,784 769,783 710,716 594,584 L 774,223 C 774,196 753,168 711,139 L 727,119 C 717,90 699,76 672,76 641,76 570,178 457,381 L 164,-76 C 142,-110 111,-127 72,-127 30,-127 9,-110 8,-76 1,-67 -2,-52 -2,-32 -2,-23 -1,-13 0,-2 Z"/>
  </g>
  <g id="bullet-char-template-10004" transform="scale(0.00048828125,-0.00048828125)">
   <path d="M 285,-33 C 182,-33 111,30 74,156 52,228 41,333 41,471 41,549 55,616 82,672 116,743 169,778 240,778 293,778 328,747 346,684 L 369,508 C 377,444 397,411 428,410 L 1163,1116 C 1174,1127 1196,1133 1229,1133 1271,1133 1292,1118 1292,1087 L 1292,965 C 1292,929 1282,901 1262,881 L 442,47 C 390,-6 338,-33 285,-33 Z"/>
  </g>
  <g id="bullet-char-template-9679" transform="scale(0.00048828125,-0.00048828125)">
   <path d="M 813,0 C 632,0 489,54 383,161 276,268 223,411 223,592 223,773 276,916 383,1023 489,1130 632,1184 813,1184 992,1184 1136,1130 1245,1023 1353,916 1407,772 1407,592 1407,412 1353,268 1245,161 1136,54 992,0 813,0 Z"/>
  </g>
  <g id="bullet-char-template-8226" transform="scale(0.00048828125,-0.00048828125)">
   <path d="M 346,457 C 273,457 209,483 155,535 101,586 74,649 74,723 74,796 101,859 155,911 209,963 273,989 346,989 419,989 480,963 531,910 582,859 608,796 608,723 608,648 583,586 532,535 482,483 420,457 346,457 Z"/>
  </g>
  <g id="bullet-char-template-8211" transform="scale(0.00048828125,-0.00048828125)">
   <path d="M -4,459 L 1135,459 1135,606 -4,606 -4,459 Z"/>
  </g>
  <g id="bullet-char-template-61548" transform="scale(0.00048828125,-0.00048828125)">
   <path d="M 173,740 C 173,903 231,1043 346,1159 462,1274 601,1332 765,1332 928,1332 1067,1274 1183,1159 1299,1043 1357,903 1357,740 1357,577 1299,437 1183,322 1067,206 928,148 765,148 601,148 462,206 346,322 231,437 173,577 173,740 Z"/>
  </g>
 </defs>
 <defs class="TextEmbeddedBitmaps"/>
 <g class="SlideGroup">
  <g>
   <g id="container-id1">
    <g id="id1" class="Slide" clip-path="url(#presentation_clip_path)">
     <g class="Page">
      <g class="com.sun.star.drawing.CustomShape">
       <g id="id3">
        <rect class="BoundingBox" stroke="none" fill="none" x="1499" y="10099" width="8703" height="8103"/>
        <path fill="none" stroke="rgb(0,0,0)" d="M 5850,18200 L 1500,18200 1500,10100 10200,10100 10200,18200 5850,18200 Z"/>
       </g>
      </g>
      <g class="com.sun.star.drawing.CustomShape">
       <g id="id4">
        <rect class="BoundingBox" stroke="none" fill="none" x="3799" y="13099" width="303" height="303"/>
        <path fill="none" stroke="rgb(89,131,176)" d="M 3950,13400 L 3800,13400 3800,13100 4100,13100 4100,13400 3950,13400 Z"/>
       </g>
      </g>
      <g class="com.sun.star.drawing.CustomShape">
       <g id="id5">
        <rect class="BoundingBox" stroke="none" fill="none" x="5999" y="13399" width="303" height="303"/>
        <path fill="none" stroke="rgb(89,131,176)" d="M 6150,13700 L 6000,13700 6000,13400 6300,13400 6300,13700 6150,13700 Z"/>
       </g>
      </g>
      <g class="com.sun.star.drawing.CustomShape">
       <g id="id6">
        <rect class="BoundingBox" stroke="none" fill="none" x="5999" y="10599" width="303" height="303"/>
        <path fill="none" stroke="rgb(89,131,176)" d="M 6150,10900 L 6000,10900 6000,10600 6300,10600 6300,10900 6150,10900 Z"/>
       </g>
      </g>
      <g class="com.sun.star.drawing.CustomShape">
       <g id="id7">
        <rect class="BoundingBox" stroke="none" fill="none" x="7999" y="11099" width="303" height="303"/>
        <path fill="none" stroke="rgb(89,131,176)" d="M 8150,11400 L 8000,11400 8000,11100 8300,11100 8300,11400 8150,11400 Z"/>
       </g>
      </g>
      <g class="com.sun.star.drawing.CustomShape">
       <g id="id8">
        <rect class="BoundingBox" stroke="none" fill="none" x="2399" y="15399" width="303" height="303"/>
        <path fill="none" stroke="rgb(89,131,176)" d="M 2550,15700 L 2400,15700 2400,15400 2700,15400 2700,15700 2550,15700 Z"/>
       </g>
      </g>
      <g class="com.sun.star.drawing.CustomShape">
       <g id="id9">
        <rect class="BoundingBox" stroke="none" fill="none" x="3099" y="10799" width="303" height="303"/>
        <path fill="none" stroke="rgb(89,131,176)" d="M 3250,11100 L 3100,11100 3100,10800 3400,10800 3400,11100 3250,11100 Z"/>
       </g>
      </g>
      <g class="com.sun.star.drawing.CustomShape">
       <g id="id10">
        <rect class="BoundingBox" stroke="none" fill="none" x="6299" y="15199" width="303" height="303"/>
        <path fill="none" stroke="rgb(255,56,56)" d="M 6450,15200 C 6535,15200 6600,15265 6600,15350 6600,15435 6535,15500 6450,15500 6365,15500 6300,15435 6300,15350 6300,15265 6365,15200 6450,15200 Z"/>
       </g>
      </g>
      <g class="com.sun.star.drawing.CustomShape">
       <g id="id11">
        <rect class="BoundingBox" stroke="none" fill="none" x="4899" y="15499" width="303" height="303"/>
        <path fill="none" stroke="rgb(255,56,56)" d="M 5050,15500 C 5135,15500 5200,15565 5200,15650 5200,15735 5135,15800 5050,15800 4965,15800 4900,15735 4900,15650 4900,15565 4965,15500 5050,15500 Z"/>
       </g>
      </g>
      <g class="com.sun.star.drawing.CustomShape">
       <g id="id12">
        <rect class="BoundingBox" stroke="none" fill="none" x="8699" y="13999" width="303" height="303"/>
        <path fill="none" stroke="rgb(255,56,56)" d="M 8850,14000 C 8935,14000 9000,14065 9000,14150 9000,14235 8935,14300 8850,14300 8765,14300 8700,14235 8700,14150 8700,14065 8765,14000 8850,14000 Z"/>
       </g>
      </g>
      <g class="com.sun.star.drawing.CustomShape">
       <g id="id13">
        <rect class="BoundingBox" stroke="none" fill="none" x="7799" y="17099" width="303" height="303"/>
        <path fill="none" stroke="rgb(255,56,56)" d="M 7950,17100 C 8035,17100 8100,17165 8100,17250 8100,17335 8035,17400 7950,17400 7865,17400 7800,17335 7800,17250 7800,17165 7865,17100 7950,17100 Z"/>
       </g>
      </g>
      <g class="com.sun.star.drawing.CustomShape">
       <g id="id14">
        <rect class="BoundingBox" stroke="none" fill="none" x="4499" y="17099" width="303" height="303"/>
        <path fill="none" stroke="rgb(255,56,56)" d="M 4650,17100 C 4735,17100 4800,17165 4800,17250 4800,17335 4735,17400 4650,17400 4565,17400 4500,17335 4500,17250 4500,17165 4565,17100 4650,17100 Z"/>
       </g>
      </g>
      <g class="com.sun.star.drawing.LineShape">
       <g id="id15">
        <rect class="BoundingBox" stroke="none" fill="none" x="1465" y="11365" width="8771" height="5471"/>
        <path fill="none" stroke="rgb(0,0,0)" stroke-width="70" stroke-linejoin="round" d="M 1500,16800 L 1617,16727"/>
        <path fill="none" stroke="rgb(0,0,0)" stroke-width="70" stroke-linejoin="round" d="M 1734,16655 L 1851,16582"/>
        <path fill="none" stroke="rgb(0,0,0)" stroke-width="70" stroke-linejoin="round" d="M 1969,16509 L 2086,16436"/>
        <path fill="none" stroke="rgb(0,0,0)" stroke-width="70" stroke-linejoin="round" d="M 2203,16364 L 2320,16291"/>
        <path fill="none" stroke="rgb(0,0,0)" stroke-width="70" stroke-linejoin="round" d="M 2437,16218 L 2554,16145"/>
        <path fill="none" stroke="rgb(0,0,0)" stroke-width="70" stroke-linejoin="round" d="M 2672,16073 L 2789,16000"/>
        <path fill="none" stroke="rgb(0,0,0)" stroke-width="70" stroke-linejoin="round" d="M 2906,15927 L 3023,15855"/>
        <path fill="none" stroke="rgb(0,0,0)" stroke-width="70" stroke-linejoin="round" d="M 3140,15782 L 3257,15709"/>
        <path fill="none" stroke="rgb(0,0,0)" stroke-width="70" stroke-linejoin="round" d="M 3375,15636 L 3492,15564"/>
        <path fill="none" stroke="rgb(0,0,0)" stroke-width="70" stroke-linejoin="round" d="M 3609,15491 L 3726,15418"/>
        <path fill="none" stroke="rgb(0,0,0)" stroke-width="70" stroke-linejoin="round" d="M 3843,15346 L 3960,15273"/>
        <path fill="none" stroke="rgb(0,0,0)" stroke-width="70" stroke-linejoin="round" d="M 4078,15200 L 4195,15127"/>
        <path fill="none" stroke="rgb(0,0,0)" stroke-width="70" stroke-linejoin="round" d="M 4312,15055 L 4429,14982"/>
        <path fill="none" stroke="rgb(0,0,0)" stroke-width="70" stroke-linejoin="round" d="M 4546,14909 L 4663,14836"/>
        <path fill="none" stroke="rgb(0,0,0)" stroke-width="70" stroke-linejoin="round" d="M 4781,14764 L 4898,14691"/>
        <path fill="none" stroke="rgb(0,0,0)" stroke-width="70" stroke-linejoin="round" d="M 5015,14618 L 5132,14546"/>
        <path fill="none" stroke="rgb(0,0,0)" stroke-width="70" stroke-linejoin="round" d="M 5249,14473 L 5366,14400"/>
        <path fill="none" stroke="rgb(0,0,0)" stroke-width="70" stroke-linejoin="round" d="M 5484,14327 L 5601,14255"/>
        <path fill="none" stroke="rgb(0,0,0)" stroke-width="70" stroke-linejoin="round" d="M 5718,14182 L 5835,14109"/>
        <path fill="none" stroke="rgb(0,0,0)" stroke-width="70" stroke-linejoin="round" d="M 5952,14037 L 6069,13964"/>
        <path fill="none" stroke="rgb(0,0,0)" stroke-width="70" stroke-linejoin="round" d="M 6187,13891 L 6304,13818"/>
        <path fill="none" stroke="rgb(0,0,0)" stroke-width="70" stroke-linejoin="round" d="M 6421,13746 L 6538,13673"/>
        <path fill="none" stroke="rgb(0,0,0)" stroke-width="70" stroke-linejoin="round" d="M 6655,13600 L 6772,13527"/>
        <path fill="none" stroke="rgb(0,0,0)" stroke-width="70" stroke-linejoin="round" d="M 6890,13455 L 7007,13382"/>
        <path fill="none" stroke="rgb(0,0,0)" stroke-width="70" stroke-linejoin="round" d="M 7124,13309 L 7241,13237"/>
        <path fill="none" stroke="rgb(0,0,0)" stroke-width="70" stroke-linejoin="round" d="M 7358,13164 L 7475,13091"/>
        <path fill="none" stroke="rgb(0,0,0)" stroke-width="70" stroke-linejoin="round" d="M 7593,13018 L 7710,12946"/>
        <path fill="none" stroke="rgb(0,0,0)" stroke-width="70" stroke-linejoin="round" d="M 7827,12873 L 7944,12800"/>
        <path fill="none" stroke="rgb(0,0,0)" stroke-width="70" stroke-linejoin="round" d="M 8061,12727 L 8178,12655"/>
        <path fill="none" stroke="rgb(0,0,0)" stroke-width="70" stroke-linejoin="round" d="M 8296,12582 L 8413,12509"/>
        <path fill="none" stroke="rgb(0,0,0)" stroke-width="70" stroke-linejoin="round" d="M 8530,12437 L 8647,12364"/>
        <path fill="none" stroke="rgb(0,0,0)" stroke-width="70" stroke-linejoin="round" d="M 8764,12291 L 8881,12218"/>
        <path fill="none" stroke="rgb(0,0,0)" stroke-width="70" stroke-linejoin="round" d="M 8999,12146 L 9116,12073"/>
        <path fill="none" stroke="rgb(0,0,0)" stroke-width="70" stroke-linejoin="round" d="M 9233,12000 L 9350,11928"/>
        <path fill="none" stroke="rgb(0,0,0)" stroke-width="70" stroke-linejoin="round" d="M 9467,11855 L 9584,11782"/>
        <path fill="none" stroke="rgb(0,0,0)" stroke-width="70" stroke-linejoin="round" d="M 9702,11709 L 9819,11637"/>
        <path fill="none" stroke="rgb(0,0,0)" stroke-width="70" stroke-linejoin="round" d="M 9936,11564 L 10053,11491"/>
        <path fill="none" stroke="rgb(0,0,0)" stroke-width="70" stroke-linejoin="round" d="M 10170,11418 L 10200,11400"/>
       </g>
      </g>
     </g>
    </g>
   </g>
  </g>
 </g>
</svg>