<?xml version="1.0" encoding="UTF-8"?>
<!DOCTYPE svg PUBLIC "-//W3C//DTD SVG 1.1//EN" "http://www.w3.org/Graphics/SVG/1.1/DTD/svg11.dtd">
<svg version="1.2" width="87.7mm" height="81.01mm" viewBox="1465 1500 8770 8101" preserveAspectRatio="xMidYMid" fill-rule="evenodd" stroke-width="28.222" stroke-linejoin="round" xmlns="http://www.w3.org/2000/svg" xmlns:ooo="http://xml.openoffice.org/svg/export" xmlns:xlink="http://www.w3.org/1999/xlink" xmlns:presentation="http://sun.com/xmlns/staroffice/presentation" xmlns:smil="http://www.w3.org/2001/SMIL20/" xmlns:anim="urn:oasis:names:tc:opendocument:xmlns:animation:1.0" xml:space="preserve">
 <defs class="ClipPathGroup">
  <clipPath id="presentation_clip_path" clipPathUnits="userSpaceOnUse">
   <rect x="1465" y="1500" width="8770" height="8101"/>
  </clipPath>
  <clipPath id="presentation_clip_path_shrink" clipPathUnits="userSpaceOnUse">
   <rect x="1473" y="1508" width="8753" height="8085"/>
  </clipPath>
 </defs>
 <defs class="TextShapeIndex">
  <g ooo:slide="id1" ooo:id-list="id3 id4 id5 id6 id7 id8 id9 id10 id11 id12 id13 id14 id15"/>
 </defs>
 <defs class="EmbeddedBulletChars">
  <g id="bullet-char-template-57356" transform="scale(0.00048828125,-0.00048828125)">
   <path d="M 580,1141 L 1163,571 580,0 -4,571 580,1141 Z"/>
  </g>
  <g id="bullet-char-template-57354" transform="scale(0.00048828125,-0.00048828125)">
   <path d="M 8,1128 L 1137,1128 1137,0 8,0 8,1128 Z"/>
  </g>
  <g id="bullet-char-template-10146" transform="scale(0.00048828125,-0.00048828125)">
   <path d="M 174,0 L 602,739 174,1481 1456,739 174,0 Z M 1358,739 L 309,1346 659,739 1358,739 Z"/>
  </g>
  <g id="bullet-char-template-10132" transform="scale(0.00048828125,-0.00048828125)">
   <path d="M 2015,739 L 1276,0 717,0 1260,543 174,543 174,936 1260,936 717,1481 1274,1481 2015,739 Z"/>
  </g>
  <g id="bullet-char-template-10007" transform="scale(0.00048828125,-0.00048828125)">
   <path d="M 0,-2 C -7,14 -16,27 -25,37 L 356,567 C 262,823 215,952 215,954 215,979 228,992 255,992 264,992 276,990 289,987 310,991 331,999 354,1012 L 381,999 492,748 772,1049 836,1024 860,1049 C 881,1039 901,1025 922,1006 886,937 835,863 770,784 769,783 710,716 594,584 L 774,223 C 774,196 753,168 711,139 L 727,119 C 717,90 699,76 672,76 641,76 570,178 457,381 L 164,-76 C 142,-110 111,-127 72,-127 30,-127 9,-110 8,-76 1,-67 -2,-52 -2,-32 -2,-23 -1,-13 0,-2 Z"/>
  </g>
  <g id="bullet-char-template-10004" transform="scale(0.00048828125,-0.00048828125)">
   <path d="M 285,-33 C 182,-33 111,30 74,156 52,228 41,333 41,471 41,549 55,616 82,672 116,743 169,778 240,778 293,778 328,747 346,684 L 369,508 C 377,444 397,411 428,410 L 1163,1116 C 1174,1127 1196,1133 1229,1133 1271,1133 1292,1118 1292,1087 L 1292,965 C 1292,929 1282,901 1262,881 L 442,47 C 390,-6 338,-33 285,-33 Z"/>
  </g>
  <g id="bullet-char-template-9679" transform="scale(0.00048828125,-0.00048828125)">
   <path d="M 813,0 C 632,0 489,54 383,161 276,268 223,411 223,592 223,773 276,916 383,1023 489,1130 632,1184 813,1184 992,1184 1136,1130 1245,1023 1353,916 1407,772 1407,592 1407,412 1353,268 1245,161 1136,54 992,0 813,0 Z"/>
  </g>
  <g id="bullet-char-template-8226" transform="scale(0.00048828125,-0.00048828125)">
   <path d="M 346,457 C 273,457 209,483 155,535 101,586 74,649 74,723 74,796 101,859 155,911 209,963 273,989 346,989 419,989 480,963 531,910 582,859 608,796 608,723 608,648 583,586 532,535 482,483 420,457 346,457 Z"/>
  </g>
  <g id="bullet-char-template-8211" transform="scale(0.00048828125,-0.00048828125)">
   <path d="M -4,459 L 1135,459 1135,606 -4,606 -4,459 Z"/>
  </g>
  <g id="bullet-char-template-61548" transform="scale(0.00048828125,-0.00048828125)">
   <path d="M 173,740 C 173,903 231,1043 346,1159 462,1274 601,1332 765,1332 928,1332 1067,1274 1183,1159 1299,1043 1357,903 1357,740 1357,577 1299,437 1183,322 1067,206 928,148 765,148 601,148 462,206 346,322 231,437 173,577 173,740 Z"/>
  </g>
 </defs>
 <defs class="TextEmbeddedBitmaps"/>
 <g class="SlideGroup">
  <g>
   <g id="container-id1">
    <g id="id1" class="Slide" clip-path="url(#presentation_clip_path)">
     <g class="Page">
      <g class="com.sun.star.drawing.CustomShape">
       <g id="id3">
        <rect class="BoundingBox" stroke="none" fill="none" x="1499" y="1499" width="8703" height="8103"/>
        <path fill="none" stroke="rgb(0,0,0)" d="M 5850,9600 L 1500,9600 1500,1500 10200,1500 10200,9600 5850,9600 Z"/>
       </g>
      </g>
      <g class="com.sun.star.drawing.CustomShape">
       <g id="id4">
        <rect class="BoundingBox" stroke="none" fill="none" x="3799" y="4499" width="303" height="303"/>
        <path fill="none" stroke="rgb(89,131,176)" d="M 3950,4800 L 3800,4800 3800,4500 4100,4500 4100,4800 3950,4800 Z"/>
       </g>
      </g>
      <g class="com.sun.star.drawing.CustomShape">
       <g id="id5">
        <rect class="BoundingBox" stroke="none" fill="none" x="5999" y="4799" width="303" height="303"/>
        <path fill="none" stroke="rgb(89,131,176)" d="M 6150,5100 L 6000,5100 6000,4800 6300,4800 6300,5100 6150,5100 Z"/>
       </g>
      </g>
      <g class="com.sun.star.drawing.CustomShape">
       <g id="id6">
        <rect class="BoundingBox" stroke="none" fill="none" x="5999" y="1999" width="303" height="303"/>
        <path fill="none" stroke="rgb(89,131,176)" d="M 6150,2300 L 6000,2300 6000,2000 6300,2000 6300,2300 6150,2300 Z"/>
       </g>
      </g>
      <g class="com.sun.star.drawing.CustomShape">
       <g id="id7">
        <rect class="BoundingBox" stroke="none" fill="none" x="7999" y="2499" width="303" height="303"/>
        <path fill="none" stroke="rgb(89,131,176)" d="M 8150,2800 L 8000,2800 8000,2500 8300,2500 8300,2800 8150,2800 Z"/>
       </g>
      </g>
      <g class="com.sun.star.drawing.CustomShape">
       <g id="id8">
        <rect class="BoundingBox" stroke="none" fill="none" x="2399" y="6799" width="303" height="303"/>
        <path fill="none" stroke="rgb(89,131,176)" d="M 2550,7100 L 2400,7100 2400,6800 2700,6800 2700,7100 2550,7100 Z"/>
       </g>
      </g>
      <g class="com.sun.star.drawing.CustomShape">
       <g id="id9">
        <rect class="BoundingBox" stroke="none" fill="none" x="3099" y="2199" width="303" height="303"/>
        <path fill="none" stroke="rgb(89,131,176)" d="M 3250,2500 L 3100,2500 3100,2200 3400,2200 3400,2500 3250,2500 Z"/>
       </g>
      </g>
      <g class="com.sun.star.drawing.CustomShape">
       <g id="id10">
        <rect class="BoundingBox" stroke="none" fill="none" x="6299" y="6599" width="303" height="303"/>
        <path fill="none" stroke="rgb(255,56,56)" d="M 6450,6600 C 6535,6600 6600,6665 6600,6750 6600,6835 6535,6900 6450,6900 6365,6900 6300,6835 6300,6750 6300,6665 6365,6600 6450,6600 Z"/>
       </g>
      </g>
      <g class="com.sun.star.drawing.CustomShape">
       <g id="id11">
        <rect class="BoundingBox" stroke="none" fill="none" x="4899" y="6899" width="303" height="303"/>
        <path fill="none" stroke="rgb(255,56,56)" d="M 5050,6900 C 5135,6900 5200,6965 5200,7050 5200,7135 5135,7200 5050,7200 4965,7200 4900,7135 4900,7050 4900,6965 4965,6900 5050,6900 Z"/>
       </g>
      </g>
      <g class="com.sun.star.drawing.CustomShape">
       <g id="id12">
        <rect class="BoundingBox" stroke="none" fill="none" x="8699" y="5399" width="303" height="303"/>
        <path fill="none" stroke="rgb(255,56,56)" d="M 8850,5400 C 8935,5400 9000,5465 9000,5550 9000,5635 8935,5700 8850,5700 8765,5700 8700,5635 8700,5550 8700,5465 8765,5400 8850,5400 Z"/>
       </g>
      </g>
      <g class="com.sun.star.drawing.CustomShape">
       <g id="id13">
        <rect class="BoundingBox" stroke="none" fill="none" x="7799" y="8499" width="303" height="303"/>
        <path fill="none" stroke="rgb(255,56,56)" d="M 7950,8500 C 8035,8500 8100,8565 8100,8650 8100,8735 8035,8800 7950,8800 7865,8800 7800,8735 7800,8650 7800,8565 7865,8500 7950,8500 Z"/>
       </g>
      </g>
      <g class="com.sun.star.drawing.CustomShape">
       <g id="id14">
        <rect class="BoundingBox" stroke="none" fill="none" x="4499" y="8499" width="303" height="303"/>
        <path fill="none" stroke="rgb(255,56,56)" d="M 4650,8500 C 4735,8500 4800,8565 4800,8650 4800,8735 4735,8800 4650,8800 4565,8800 4500,8735 4500,8650 4500,8565 4565,8500 4650,8500 Z"/>
       </g>
      </g>
      <g class="com.sun.star.drawing.LineShape">
       <g id="id15">
        <rect class="BoundingBox" stroke="none" fill="none" x="1465" y="3665" width="8771" height="4571"/>
        <path fill="none" stroke="rgb(0,0,0)" stroke-width="70" stroke-linejoin="round" d="M 1500,8200 L 1622,8137"/>
        <path fill="none" stroke="rgb(0,0,0)" stroke-width="70" stroke-linejoin="round" d="M 1745,8073 L 1867,8010"/>
        <path fill="none" stroke="rgb(0,0,0)" stroke-width="70" stroke-linejoin="round" d="M 1990,7947 L 2112,7883"/>
        <path fill="none" stroke="rgb(0,0,0)" stroke-width="70" stroke-linejoin="round" d="M 2235,7820 L 2357,7757"/>
        <path fill="none" stroke="rgb(0,0,0)" stroke-width="70" stroke-linejoin="round" d="M 2480,7693 L 2602,7630"/>
        <path fill="none" stroke="rgb(0,0,0)" stroke-width="70" stroke-linejoin="round" d="M 2725,7566 L 2847,7503"/>
        <path fill="none" stroke="rgb(0,0,0)" stroke-width="70" stroke-linejoin="round" d="M 2970,7440 L 3092,7376"/>
        <path fill="none" stroke="rgb(0,0,0)" stroke-width="70" stroke-linejoin="round" d="M 3215,7313 L 3337,7250"/>
        <path fill="none" stroke="rgb(0,0,0)" stroke-width="70" stroke-linejoin="round" d="M 3460,7186 L 3582,7123"/>
        <path fill="none" stroke="rgb(0,0,0)" stroke-width="70" stroke-linejoin="round" d="M 3705,7060 L 3827,6996"/>
        <path fill="none" stroke="rgb(0,0,0)" stroke-width="70" stroke-linejoin="round" d="M 3950,6933 L 4072,6870"/>
        <path fill="none" stroke="rgb(0,0,0)" stroke-width="70" stroke-linejoin="round" d="M 4195,6806 L 4317,6743"/>
        <path fill="none" stroke="rgb(0,0,0)" stroke-width="70" stroke-linejoin="round" d="M 4440,6679 L 4562,6616"/>
        <path fill="none" stroke="rgb(0,0,0)" stroke-width="70" stroke-linejoin="round" d="M 4685,6553 L 4807,6489"/>
        <path fill="none" stroke="rgb(0,0,0)" stroke-width="70" stroke-linejoin="round" d="M 4930,6426 L 5052,6363"/>
        <path fill="none" stroke="rgb(0,0,0)" stroke-width="70" stroke-linejoin="round" d="M 5175,6299 L 5297,6236"/>
        <path fill="none" stroke="rgb(0,0,0)" stroke-width="70" stroke-linejoin="round" d="M 5420,6173 L 5542,6109"/>
        <path fill="none" stroke="rgb(0,0,0)" stroke-width="70" stroke-linejoin="round" d="M 5664,6046 L 5787,5983"/>
        <path fill="none" stroke="rgb(0,0,0)" stroke-width="70" stroke-linejoin="round" d="M 5909,5919 L 6032,5856"/>
        <path fill="none" stroke="rgb(0,0,0)" stroke-width="70" stroke-linejoin="round" d="M 6154,5793 L 6277,5729"/>
        <path fill="none" stroke="rgb(0,0,0)" stroke-width="70" stroke-linejoin="round" d="M 6399,5666 L 6522,5602"/>
        <path fill="none" stroke="rgb(0,0,0)" stroke-width="70" stroke-linejoin="round" d="M 6644,5539 L 6767,5476"/>
        <path fill="none" stroke="rgb(0,0,0)" stroke-width="70" stroke-linejoin="round" d="M 6889,5412 L 7012,5349"/>
        <path fill="none" stroke="rgb(0,0,0)" stroke-width="70" stroke-linejoin="round" d="M 7134,5286 L 7257,5222"/>
        <path fill="none" stroke="rgb(0,0,0)" stroke-width="70" stroke-linejoin="round" d="M 7379,5159 L 7502,5096"/>
        <path fill="none" stroke="rgb(0,0,0)" stroke-width="70" stroke-linejoin="round" d="M 7624,5032 L 7747,4969"/>
        <path fill="none" stroke="rgb(0,0,0)" stroke-width="70" stroke-linejoin="round" d="M 7869,4906 L 7992,4842"/>
        <path fill="none" stroke="rgb(0,0,0)" stroke-width="70" stroke-linejoin="round" d="M 8114,4779 L 8237,4716"/>
        <path fill="none" stroke="rgb(0,0,0)" stroke-width="70" stroke-linejoin="round" d="M 8359,4652 L 8482,4589"/>
        <path fill="none" stroke="rgb(0,0,0)" stroke-width="70" stroke-linejoin="round" d="M 8604,4525 L 8727,4462"/>
        <path fill="none" stroke="rgb(0,0,0)" stroke-width="70" stroke-linejoin="round" d="M 8849,4399 L 8972,4335"/>
        <path fill="none" stroke="rgb(0,0,0)" stroke-width="70" stroke-linejoin="round" d="M 9094,4272 L 9217,4209"/>
        <path fill="none" stroke="rgb(0,0,0)" stroke-width="70" stroke-linejoin="round" d="M 9339,4145 L 9462,4082"/>
        <path fill="none" stroke="rgb(0,0,0)" stroke-width="70" stroke-linejoin="round" d="M 9584,4019 L 9707,3955"/>
        <path fill="none" stroke="rgb(0,0,0)" stroke-width="70" stroke-linejoin="round" d="M 9829,3892 L 9951,3829"/>
        <path fill="none" stroke="rgb(0,0,0)" stroke-width="70" stroke-linejoin="round" d="M 10074,3765 L 10196,3702"/>
       </g>
      </g>
     </g>
    </g>
   </g>
  </g>
 </g>
</svg>