<?xml version="1.0" encoding="UTF-8"?>
<!DOCTYPE svg PUBLIC "-//W3C//DTD SVG 1.1//EN" "http://www.w3.org/Graphics/SVG/1.1/DTD/svg11.dtd">
<svg version="1.2" width="67.48mm" height="61.19mm" viewBox="3027 1827 6748 6119" preserveAspectRatio="xMidYMid" fill-rule="evenodd" stroke-width="28.222" stroke-linejoin="round" xmlns="http://www.w3.org/2000/svg" xmlns:ooo="http://xml.openoffice.org/svg/export" xmlns:xlink="http://www.w3.org/1999/xlink" xmlns:presentation="http://sun.com/xmlns/staroffice/presentation" xmlns:smil="http://www.w3.org/2001/SMIL20/" xmlns:anim="urn:oasis:names:tc:opendocument:xmlns:animation:1.0" xml:space="preserve">
 <defs class="ClipPathGroup">
  <clipPath id="presentation_clip_path" clipPathUnits="userSpaceOnUse">
   <rect x="3027" y="1827" width="6748" height="6119"/>
  </clipPath>
  <clipPath id="presentation_clip_path_shrink" clipPathUnits="userSpaceOnUse">
   <rect x="3033" y="1833" width="6735" height="6107"/>
  </clipPath>
 </defs>
 <defs class="TextShapeIndex">
  <g ooo:slide="id1" ooo:id-list="id3 id4 id5 id6 id7 id8 id9 id10 id11 id12 id13 id14 id15 id16 id17 id18"/>
 </defs>
 <defs class="EmbeddedBulletChars">
  <g id="bullet-char-template-57356" transform="scale(0.00048828125,-0.00048828125)">
   <path d="M 580,1141 L 1163,571 580,0 -4,571 580,1141 Z"/>
  </g>
  <g id="bullet-char-template-57354" transform="scale(0.00048828125,-0.00048828125)">
   <path d="M 8,1128 L 1137,1128 1137,0 8,0 8,1128 Z"/>
  </g>
  <g id="bullet-char-template-10146" transform="scale(0.00048828125,-0.00048828125)">
   <path d="M 174,0 L 602,739 174,1481 1456,739 174,0 Z M 1358,739 L 309,1346 659,739 1358,739 Z"/>
  </g>
  <g id="bullet-char-template-10132" transform="scale(0.00048828125,-0.00048828125)">
   <path d="M 2015,739 L 1276,0 717,0 1260,543 174,543 174,936 1260,936 717,1481 1274,1481 2015,739 Z"/>
  </g>
  <g id="bullet-char-template-10007" transform="scale(0.00048828125,-0.00048828125)">
   <path d="M 0,-2 C -7,14 -16,27 -25,37 L 356,567 C 262,823 215,952 215,954 215,979 228,992 255,992 264,992 276,990 289,987 310,991 331,999 354,1012 L 381,999 492,748 772,1049 836,1024 860,1049 C 881,1039 901,1025 922,1006 886,937 835,863 770,784 769,783 710,716 594,584 L 774,223 C 774,196 753,168 711,139 L 727,119 C 717,90 699,76 672,76 641,76 570,178 457,381 L 164,-76 C 142,-110 111,-127 72,-127 30,-127 9,-110 8,-76 1,-67 -2,-52 -2,-32 -2,-23 -1,-13 0,-2 Z"/>
  </g>
  <g id="bullet-char-template-10004" transform="scale(0.00048828125,-0.00048828125)">
   <path d="M 285,-33 C 182,-33 111,30 74,156 52,228 41,333 41,471 41,549 55,616 82,672 116,743 169,778 240,778 293,778 328,747 346,684 L 369,508 C 377,444 397,411 428,410 L 1163,1116 C 1174,1127 1196,1133 1229,1133 1271,1133 1292,1118 1292,1087 L 1292,965 C 1292,929 1282,901 1262,881 L 442,47 C 390,-6 338,-33 285,-33 Z"/>
  </g>
  <g id="bullet-char-template-9679" transform="scale(0.00048828125,-0.00048828125)">
   <path d="M 813,0 C 632,0 489,54 383,161 276,268 223,411 223,592 223,773 276,916 383,1023 489,1130 632,1184 813,1184 992,1184 1136,1130 1245,1023 1353,916 1407,772 1407,592 1407,412 1353,268 1245,161 1136,54 992,0 813,0 Z"/>
  </g>
  <g id="bullet-char-template-8226" transform="scale(0.00048828125,-0.00048828125)">
   <path d="M 346,457 C 273,457 209,483 155,535 101,586 74,649 74,723 74,796 101,859 155,911 209,963 273,989 346,989 419,989 480,963 531,910 582,859 608,796 608,723 608,648 583,586 532,535 482,483 420,457 346,457 Z"/>
  </g>
  <g id="bullet-char-template-8211" transform="scale(0.00048828125,-0.00048828125)">
   <path d="M -4,459 L 1135,459 1135,606 -4,606 -4,459 Z"/>
  </g>
  <g id="bullet-char-template-61548" transform="scale(0.00048828125,-0.00048828125)">
   <path d="M 173,740 C 173,903 231,1043 346,1159 462,1274 601,1332 765,1332 928,1332 1067,1274 1183,1159 1299,1043 1357,903 1357,740 1357,577 1299,437 1183,322 1067,206 928,148 765,148 601,148 462,206 346,322 231,437 173,577 173,740 Z"/>
  </g>
 </defs>
 <defs class="TextEmbeddedBitmaps"/>
 <g class="SlideGroup">
  <g>
   <g id="container-id1">
    <g id="id1" class="Slide" clip-path="url(#presentation_clip_path)">
     <g class="Page">
      <g class="com.sun.star.drawing.CustomShape">
       <g id="id3">
        <rect class="BoundingBox" stroke="none" fill="none" x="3599" y="2399" width="1804" height="1804"/>
        <path fill="none" stroke="rgb(51,51,51)" d="M 4499,2400 C 5009,2400 5399,2789 5399,3299 5399,3809 5009,4199 4499,4199 3989,4199 3600,3809 3600,3299 3600,2789 3989,2400 4499,2400 Z"/>
        <path fill="none" stroke="rgb(51,51,51)" d="M 3600,2400 L 3600,2400 Z"/>
        <path fill="none" stroke="rgb(51,51,51)" d="M 5401,4201 L 5401,4201 Z"/>
       </g>
      </g>
      <g class="com.sun.star.drawing.CustomShape">
       <g id="id4">
        <rect class="BoundingBox" stroke="none" fill="none" x="7400" y="2400" width="1804" height="1804"/>
        <path fill="none" stroke="rgb(51,51,51)" d="M 8300,2401 C 8810,2401 9200,2790 9200,3300 9200,3810 8810,4200 8300,4200 7790,4200 7401,3810 7401,3300 7401,2790 7790,2401 8300,2401 Z"/>
        <path fill="none" stroke="rgb(51,51,51)" d="M 7401,2401 L 7401,2401 Z"/>
        <path fill="none" stroke="rgb(51,51,51)" d="M 9202,4202 L 9202,4202 Z"/>
       </g>
      </g>
      <g class="com.sun.star.drawing.CustomShape">
       <g id="id5">
        <rect class="BoundingBox" stroke="none" fill="none" x="3599" y="5599" width="1804" height="1804"/>
        <path fill="none" stroke="rgb(51,51,51)" d="M 4499,5600 C 5009,5600 5399,5989 5399,6499 5399,7009 5009,7399 4499,7399 3989,7399 3600,7009 3600,6499 3600,5989 3989,5600 4499,5600 Z"/>
        <path fill="none" stroke="rgb(51,51,51)" d="M 3600,5600 L 3600,5600 Z"/>
        <path fill="none" stroke="rgb(51,51,51)" d="M 5401,7401 L 5401,7401 Z"/>
       </g>
      </g>
      <g class="com.sun.star.drawing.CustomShape">
       <g id="id6">
        <rect class="BoundingBox" stroke="none" fill="none" x="7400" y="5600" width="1804" height="1804"/>
        <path fill="none" stroke="rgb(51,51,51)" d="M 8300,5601 C 8810,5601 9200,5990 9200,6500 9200,7010 8810,7400 8300,7400 7790,7400 7401,7010 7401,6500 7401,5990 7790,5601 8300,5601 Z"/>
        <path fill="none" stroke="rgb(51,51,51)" d="M 7401,5601 L 7401,5601 Z"/>
        <path fill="none" stroke="rgb(51,51,51)" d="M 9202,7402 L 9202,7402 Z"/>
       </g>
      </g>
      <g class="com.sun.star.drawing.ConnectorShape">
       <g id="id7">
        <rect class="BoundingBox" stroke="none" fill="none" x="3055" y="1827" width="1460" height="1475"/>
        <path fill="none" stroke="rgb(0,0,0)" d="M 3600,3300 C 2849,3300 2973,2599 3386,2186 3799,1773 4170,1728 4386,1994"/>
        <path fill="rgb(0,0,0)" stroke="none" d="M 4500,2400 L 4514,1926 4226,2012 4500,2400 Z"/>
       </g>
      </g>
      <g class="com.sun.star.drawing.ConnectorShape">
       <g id="id8">
        <rect class="BoundingBox" stroke="none" fill="none" x="3027" y="6486" width="1475" height="1461"/>
        <path fill="none" stroke="rgb(0,0,0)" d="M 4500,7400 C 4500,8153 3799,8028 3386,7615 2973,7202 2928,6830 3194,6614"/>
        <path fill="rgb(0,0,0)" stroke="none" d="M 3600,6500 L 3126,6486 3213,6774 3600,6500 Z"/>
       </g>
      </g>
      <g class="com.sun.star.drawing.ConnectorShape">
       <g id="id9">
        <rect class="BoundingBox" stroke="none" fill="none" x="8300" y="6486" width="1477" height="1462"/>
        <path fill="none" stroke="rgb(0,0,0)" d="M 8301,7401 C 8301,8154 9003,8029 9416,7616 9829,7203 9875,6830 9607,6614"/>
        <path fill="rgb(0,0,0)" stroke="none" d="M 9201,6501 L 9589,6774 9675,6487 9201,6501 Z"/>
       </g>
      </g>
      <g class="com.sun.star.drawing.ConnectorShape">
       <g id="id10">
        <rect class="BoundingBox" stroke="none" fill="none" x="8300" y="1856" width="1477" height="1461"/>
        <path fill="none" stroke="rgb(0,0,0)" d="M 8301,2401 C 8301,1650 9003,1774 9416,2187 9829,2600 9875,2972 9607,3188"/>
        <path fill="rgb(0,0,0)" stroke="none" d="M 9201,3301 L 9675,3315 9589,3028 9201,3301 Z"/>
       </g>
      </g>
      <g class="com.sun.star.drawing.ConnectorShape">
       <g id="id11">
        <rect class="BoundingBox" stroke="none" fill="none" x="5136" y="2513" width="2529" height="302"/>
        <path fill="none" stroke="rgb(0,0,0)" d="M 5137,2663 C 7033,2663 5971,2664 7226,2664"/>
        <path fill="rgb(0,0,0)" stroke="none" d="M 7664,2664 L 7214,2514 7214,2814 7664,2664 Z"/>
       </g>
      </g>
      <g class="com.sun.star.drawing.ConnectorShape">
       <g id="id12">
        <rect class="BoundingBox" stroke="none" fill="none" x="5400" y="3150" width="2003" height="302"/>
        <path fill="none" stroke="rgb(0,0,0)" d="M 7401,3301 C 5901,3301 6698,3300 5838,3300"/>
        <path fill="rgb(0,0,0)" stroke="none" d="M 5400,3300 L 5850,3450 5850,3150 5400,3300 Z"/>
       </g>
      </g>
      <g class="com.sun.star.drawing.ConnectorShape">
       <g id="id13">
        <rect class="BoundingBox" stroke="none" fill="none" x="5399" y="6350" width="2003" height="302"/>
        <path fill="none" stroke="rgb(0,0,0)" d="M 5400,6500 C 6901,6500 6104,6501 6963,6501"/>
        <path fill="rgb(0,0,0)" stroke="none" d="M 7401,6501 L 6951,6351 6951,6651 7401,6501 Z"/>
       </g>
      </g>
      <g class="com.sun.star.drawing.ConnectorShape">
       <g id="id14">
        <rect class="BoundingBox" stroke="none" fill="none" x="5137" y="6987" width="2529" height="302"/>
        <path fill="none" stroke="rgb(0,0,0)" d="M 7664,7138 C 5770,7138 6832,7137 5575,7137"/>
        <path fill="rgb(0,0,0)" stroke="none" d="M 5137,7137 L 5587,7287 5587,6987 5137,7137 Z"/>
       </g>
      </g>
      <g class="com.sun.star.drawing.ConnectorShape">
       <g id="id15">
        <rect class="BoundingBox" stroke="none" fill="none" x="8788" y="3937" width="301" height="1928"/>
        <path fill="none" stroke="rgb(0,0,0)" d="M 8938,3938 L 8938,5434"/>
        <path fill="rgb(0,0,0)" stroke="none" d="M 8938,5864 L 9088,5414 8788,5414 8938,5864 Z"/>
       </g>
      </g>
      <g class="com.sun.star.drawing.ConnectorShape">
       <g id="id16">
        <rect class="BoundingBox" stroke="none" fill="none" x="8151" y="4201" width="301" height="1402"/>
        <path fill="none" stroke="rgb(0,0,0)" d="M 8301,5601 L 8301,4631"/>
        <path fill="rgb(0,0,0)" stroke="none" d="M 8301,4201 L 8151,4651 8451,4651 8301,4201 Z"/>
       </g>
      </g>
      <g class="com.sun.star.drawing.ConnectorShape">
       <g id="id17">
        <rect class="BoundingBox" stroke="none" fill="none" x="4350" y="4199" width="301" height="1402"/>
        <path fill="none" stroke="rgb(0,0,0)" d="M 4500,4200 L 4500,5170"/>
        <path fill="rgb(0,0,0)" stroke="none" d="M 4500,5600 L 4650,5150 4350,5150 4500,5600 Z"/>
       </g>
      </g>
      <g class="com.sun.star.drawing.ConnectorShape">
       <g id="id18">
        <rect class="BoundingBox" stroke="none" fill="none" x="3713" y="3937" width="301" height="1928"/>
        <path fill="none" stroke="rgb(0,0,0)" d="M 3863,5863 L 3863,4367"/>
        <path fill="rgb(0,0,0)" stroke="none" d="M 3863,3937 L 3713,4387 4013,4387 3863,3937 Z"/>
       </g>
      </g>
     </g>
    </g>
   </g>
  </g>
 </g>
</svg>